<mxfile host="65bd71144e">
    <diagram id="fTFtmw8irvLtK1-M9rfn" name="第 1 页">
        <mxGraphModel dx="1511" dy="2159" grid="1" gridSize="10" guides="1" tooltips="1" connect="1" arrows="1" fold="1" page="1" pageScale="1" pageWidth="827" pageHeight="1169" math="0" shadow="0">
            <root>
                <mxCell id="0"/>
                <mxCell id="1" parent="0"/>
                <mxCell id="208" value="" style="rounded=1;whiteSpace=wrap;html=1;fillColor=default;strokeWidth=2;" parent="1" vertex="1">
                    <mxGeometry x="210" y="190" width="280" height="100" as="geometry"/>
                </mxCell>
                <mxCell id="209" value="" style="rounded=1;whiteSpace=wrap;html=1;fillColor=default;strokeColor=#878787;dashed=1;dashPattern=8 8;" parent="1" vertex="1">
                    <mxGeometry x="210" y="965" width="260" height="105" as="geometry"/>
                </mxCell>
                <mxCell id="210" value="" style="rounded=1;whiteSpace=wrap;html=1;fillColor=default;strokeWidth=2;" parent="1" vertex="1">
                    <mxGeometry x="330" y="965" width="280" height="110" as="geometry"/>
                </mxCell>
                <mxCell id="211" value="0" style="rounded=0;whiteSpace=wrap;html=1;fillColor=#d5e8d4;strokeColor=#82b366;strokeWidth=2;" parent="1" vertex="1">
                    <mxGeometry x="50" y="230" width="40" height="40" as="geometry"/>
                </mxCell>
                <mxCell id="212" value="1" style="rounded=0;whiteSpace=wrap;html=1;fillColor=#d5e8d4;strokeColor=#82b366;strokeWidth=2;" parent="1" vertex="1">
                    <mxGeometry x="90" y="230" width="40" height="40" as="geometry"/>
                </mxCell>
                <mxCell id="213" value="2" style="rounded=0;whiteSpace=wrap;html=1;fillColor=#d5e8d4;strokeColor=#82b366;strokeWidth=2;" parent="1" vertex="1">
                    <mxGeometry x="130" y="230" width="40" height="40" as="geometry"/>
                </mxCell>
                <mxCell id="214" value="3" style="rounded=0;whiteSpace=wrap;html=1;fillColor=#d5e8d4;strokeColor=#82b366;strokeWidth=2;" parent="1" vertex="1">
                    <mxGeometry x="170" y="230" width="40" height="40" as="geometry"/>
                </mxCell>
                <mxCell id="215" value="10" style="rounded=0;whiteSpace=wrap;html=1;strokeWidth=2;" parent="1" vertex="1">
                    <mxGeometry x="490" y="230" width="40" height="40" as="geometry"/>
                </mxCell>
                <mxCell id="216" value="11" style="rounded=0;whiteSpace=wrap;html=1;strokeWidth=2;" parent="1" vertex="1">
                    <mxGeometry x="530" y="230" width="40" height="40" as="geometry"/>
                </mxCell>
                <mxCell id="217" value="12" style="rounded=0;whiteSpace=wrap;html=1;strokeWidth=2;" parent="1" vertex="1">
                    <mxGeometry x="570" y="230" width="40" height="40" as="geometry"/>
                </mxCell>
                <mxCell id="218" value="13" style="rounded=0;whiteSpace=wrap;html=1;strokeWidth=2;" parent="1" vertex="1">
                    <mxGeometry x="610" y="230" width="40" height="40" as="geometry"/>
                </mxCell>
                <mxCell id="219" value="..." style="rounded=0;whiteSpace=wrap;html=1;strokeWidth=2;" parent="1" vertex="1">
                    <mxGeometry x="650" y="230" width="40" height="40" as="geometry"/>
                </mxCell>
                <mxCell id="220" value="99" style="rounded=0;whiteSpace=wrap;html=1;strokeWidth=2;" parent="1" vertex="1">
                    <mxGeometry x="690" y="230" width="40" height="40" as="geometry"/>
                </mxCell>
                <mxCell id="221" value="滑动窗口" style="text;html=1;align=center;verticalAlign=middle;whiteSpace=wrap;rounded=0;fontStyle=1" parent="1" vertex="1">
                    <mxGeometry x="254.16" y="190" width="190" height="30" as="geometry"/>
                </mxCell>
                <mxCell id="227" value="0" style="rounded=0;whiteSpace=wrap;html=1;fillColor=#d5e8d4;strokeColor=#82b366;strokeWidth=2;" parent="1" vertex="1">
                    <mxGeometry x="50" y="1010" width="40" height="40" as="geometry"/>
                </mxCell>
                <mxCell id="228" value="1" style="rounded=0;whiteSpace=wrap;html=1;fillColor=#d5e8d4;strokeColor=#82b366;strokeWidth=2;" parent="1" vertex="1">
                    <mxGeometry x="90" y="1010" width="40" height="40" as="geometry"/>
                </mxCell>
                <mxCell id="229" value="2" style="rounded=0;whiteSpace=wrap;html=1;fillColor=#d5e8d4;strokeColor=#82b366;strokeWidth=2;" parent="1" vertex="1">
                    <mxGeometry x="130" y="1010" width="40" height="40" as="geometry"/>
                </mxCell>
                <mxCell id="230" value="3" style="rounded=0;whiteSpace=wrap;html=1;fillColor=#d5e8d4;strokeColor=#82b366;strokeWidth=2;" parent="1" vertex="1">
                    <mxGeometry x="170" y="1010" width="40" height="40" as="geometry"/>
                </mxCell>
                <mxCell id="231" value="4" style="rounded=0;whiteSpace=wrap;html=1;fillColor=#d5e8d4;strokeColor=#82b366;strokeWidth=2;" parent="1" vertex="1">
                    <mxGeometry x="210" y="1010" width="40" height="40" as="geometry"/>
                </mxCell>
                <mxCell id="232" value="5" style="rounded=0;whiteSpace=wrap;html=1;fillColor=#d5e8d4;strokeColor=#82b366;strokeWidth=2;" parent="1" vertex="1">
                    <mxGeometry x="250" y="1010" width="40" height="40" as="geometry"/>
                </mxCell>
                <mxCell id="233" value="6" style="rounded=0;whiteSpace=wrap;html=1;fillColor=#d5e8d4;strokeColor=#82b366;strokeWidth=2;" parent="1" vertex="1">
                    <mxGeometry x="290" y="1010" width="40" height="40" as="geometry"/>
                </mxCell>
                <mxCell id="236" value="" style="curved=1;endArrow=classic;html=1;strokeColor=#5C5C5C;dashed=1;dashPattern=8 8;" parent="1" edge="1">
                    <mxGeometry width="50" height="50" relative="1" as="geometry">
                        <mxPoint x="280" y="960" as="sourcePoint"/>
                        <mxPoint x="400" y="960" as="targetPoint"/>
                        <Array as="points">
                            <mxPoint x="300" y="940"/>
                            <mxPoint x="380" y="940"/>
                        </Array>
                    </mxGeometry>
                </mxCell>
                <mxCell id="237" value="滑动窗口" style="text;html=1;align=center;verticalAlign=middle;whiteSpace=wrap;rounded=0;fontSize=12;fontStyle=1" parent="1" vertex="1">
                    <mxGeometry x="376.67" y="965" width="190" height="24.166666666666664" as="geometry"/>
                </mxCell>
                <mxCell id="239" value="13" style="rounded=0;whiteSpace=wrap;html=1;strokeWidth=2;" parent="1" vertex="1">
                    <mxGeometry x="610" y="1010" width="40" height="40" as="geometry"/>
                </mxCell>
                <mxCell id="240" value="..." style="rounded=0;whiteSpace=wrap;html=1;strokeWidth=2;" parent="1" vertex="1">
                    <mxGeometry x="650" y="1010" width="40" height="40" as="geometry"/>
                </mxCell>
                <mxCell id="241" value="99" style="rounded=0;whiteSpace=wrap;html=1;strokeWidth=2;" parent="1" vertex="1">
                    <mxGeometry x="690" y="1010" width="40" height="40" as="geometry"/>
                </mxCell>
                <mxCell id="242" value="" style="group;strokeColor=default;container=0;" parent="1" vertex="1" connectable="0">
                    <mxGeometry x="330" y="1004" width="280" height="50" as="geometry"/>
                </mxCell>
                <mxCell id="243" value="4" style="rounded=0;whiteSpace=wrap;html=1;fillColor=#fff2cc;strokeColor=default;strokeWidth=3;" parent="1" vertex="1">
                    <mxGeometry x="210" y="225" width="46.66666666666666" height="50" as="geometry"/>
                </mxCell>
                <mxCell id="344" style="edgeStyle=none;html=1;exitX=0.5;exitY=0;exitDx=0;exitDy=0;entryX=0.5;entryY=1;entryDx=0;entryDy=0;fillColor=#fff2cc;strokeColor=#d6b656;strokeWidth=3;dashed=1;dashPattern=1 1;" parent="1" source="244" target="341" edge="1">
                    <mxGeometry relative="1" as="geometry"/>
                </mxCell>
                <mxCell id="244" value="5" style="rounded=0;whiteSpace=wrap;html=1;fillColor=#fff2cc;strokeColor=default;strokeWidth=3;" parent="1" vertex="1">
                    <mxGeometry x="256.66666666666663" y="225" width="46.66666666666666" height="50" as="geometry"/>
                </mxCell>
                <mxCell id="345" style="edgeStyle=none;html=1;exitX=0.5;exitY=0;exitDx=0;exitDy=0;entryX=0.5;entryY=1;entryDx=0;entryDy=0;fillColor=#fff2cc;strokeColor=#d6b656;strokeWidth=3;dashed=1;dashPattern=1 1;" parent="1" source="245" target="342" edge="1">
                    <mxGeometry relative="1" as="geometry"/>
                </mxCell>
                <mxCell id="245" value="6" style="rounded=0;whiteSpace=wrap;html=1;fillColor=#fff2cc;strokeColor=default;strokeWidth=3;" parent="1" vertex="1">
                    <mxGeometry x="303.3333333333333" y="225" width="46.66666666666666" height="50" as="geometry"/>
                </mxCell>
                <mxCell id="346" style="edgeStyle=none;html=1;exitX=0.5;exitY=0;exitDx=0;exitDy=0;entryX=0.5;entryY=1;entryDx=0;entryDy=0;fillColor=#fff2cc;strokeColor=#d6b656;strokeWidth=3;dashed=1;dashPattern=1 1;" parent="1" source="246" target="343" edge="1">
                    <mxGeometry relative="1" as="geometry"/>
                </mxCell>
                <mxCell id="246" value="7" style="rounded=0;whiteSpace=wrap;html=1;strokeWidth=3;strokeColor=default;fillColor=#fff2cc;" parent="1" vertex="1">
                    <mxGeometry x="350" y="225" width="46.66666666666666" height="50" as="geometry"/>
                </mxCell>
                <mxCell id="347" style="edgeStyle=none;html=1;exitX=0.5;exitY=0;exitDx=0;exitDy=0;entryX=0.5;entryY=1;entryDx=0;entryDy=0;strokeWidth=3;fillColor=#d5e8d4;strokeColor=#82b366;dashed=1;dashPattern=1 1;" parent="1" source="247" target="338" edge="1">
                    <mxGeometry relative="1" as="geometry"/>
                </mxCell>
                <mxCell id="247" value="8" style="rounded=0;whiteSpace=wrap;html=1;strokeWidth=3;strokeColor=default;fillColor=#d5e8d4;" parent="1" vertex="1">
                    <mxGeometry x="396.66666666666663" y="225" width="46.66666666666666" height="50" as="geometry"/>
                </mxCell>
                <mxCell id="348" style="edgeStyle=none;html=1;exitX=0.5;exitY=0;exitDx=0;exitDy=0;entryX=0.5;entryY=1;entryDx=0;entryDy=0;strokeWidth=3;dashed=1;dashPattern=1 1;" parent="1" source="248" target="339" edge="1">
                    <mxGeometry relative="1" as="geometry"/>
                </mxCell>
                <mxCell id="248" value="9" style="rounded=0;whiteSpace=wrap;html=1;strokeWidth=3;" parent="1" vertex="1">
                    <mxGeometry x="443.3333333333333" y="225" width="46.66666666666666" height="50" as="geometry"/>
                </mxCell>
                <mxCell id="385" style="edgeStyle=none;html=1;exitX=0.5;exitY=0;exitDx=0;exitDy=0;entryX=0.5;entryY=1;entryDx=0;entryDy=0;strokeWidth=3;dashed=1;dashPattern=1 1;fillColor=#fff2cc;strokeColor=#d6b656;" parent="1" source="249" target="381" edge="1">
                    <mxGeometry relative="1" as="geometry"/>
                </mxCell>
                <mxCell id="249" value="7" style="rounded=0;whiteSpace=wrap;html=1;fillColor=#fff2cc;strokeColor=default;strokeWidth=3;" parent="1" vertex="1">
                    <mxGeometry x="330" y="1004" width="46.666666666666664" height="50" as="geometry"/>
                </mxCell>
                <mxCell id="386" style="edgeStyle=none;html=1;exitX=0.5;exitY=0;exitDx=0;exitDy=0;entryX=0.5;entryY=1;entryDx=0;entryDy=0;strokeWidth=3;dashed=1;dashPattern=1 1;fillColor=#d5e8d4;strokeColor=#82b366;" parent="1" source="250" target="376" edge="1">
                    <mxGeometry relative="1" as="geometry"/>
                </mxCell>
                <mxCell id="250" value="8" style="rounded=0;whiteSpace=wrap;html=1;fillColor=#d5e8d4;strokeColor=default;strokeWidth=3;" parent="1" vertex="1">
                    <mxGeometry x="376.6666666666667" y="1004" width="46.666666666666664" height="50" as="geometry"/>
                </mxCell>
                <mxCell id="387" style="edgeStyle=none;html=1;exitX=0.5;exitY=0;exitDx=0;exitDy=0;entryX=0.5;entryY=1;entryDx=0;entryDy=0;strokeWidth=3;dashed=1;dashPattern=1 1;fillColor=#fff2cc;strokeColor=#d6b656;" parent="1" source="251" target="377" edge="1">
                    <mxGeometry relative="1" as="geometry"/>
                </mxCell>
                <mxCell id="251" value="9" style="rounded=0;whiteSpace=wrap;html=1;fillColor=#fff2cc;strokeColor=default;strokeWidth=3;" parent="1" vertex="1">
                    <mxGeometry x="423.3333333333333" y="1004" width="46.666666666666664" height="50" as="geometry"/>
                </mxCell>
                <mxCell id="388" style="edgeStyle=none;html=1;exitX=0.5;exitY=0;exitDx=0;exitDy=0;entryX=0.5;entryY=1;entryDx=0;entryDy=0;strokeWidth=3;dashed=1;dashPattern=1 1;fillColor=#fff2cc;strokeColor=#d6b656;" parent="1" source="252" target="378" edge="1">
                    <mxGeometry relative="1" as="geometry"/>
                </mxCell>
                <mxCell id="252" value="10" style="rounded=0;whiteSpace=wrap;html=1;strokeWidth=3;strokeColor=default;fillColor=#fff2cc;" parent="1" vertex="1">
                    <mxGeometry x="470" y="1004" width="46.666666666666664" height="50" as="geometry"/>
                </mxCell>
                <mxCell id="389" style="edgeStyle=none;html=1;exitX=0.5;exitY=0;exitDx=0;exitDy=0;entryX=0.5;entryY=1;entryDx=0;entryDy=0;strokeWidth=3;dashed=1;dashPattern=1 1;fillColor=#fff2cc;strokeColor=#d6b656;" parent="1" source="254" target="379" edge="1">
                    <mxGeometry relative="1" as="geometry"/>
                </mxCell>
                <mxCell id="254" value="11" style="rounded=0;whiteSpace=wrap;html=1;strokeWidth=3;strokeColor=default;fillColor=#fff2cc;" parent="1" vertex="1">
                    <mxGeometry x="516.6666666666666" y="1004" width="46.666666666666664" height="50" as="geometry"/>
                </mxCell>
                <mxCell id="390" style="edgeStyle=none;html=1;exitX=0.5;exitY=0;exitDx=0;exitDy=0;entryX=0.5;entryY=1;entryDx=0;entryDy=0;strokeWidth=3;dashed=1;dashPattern=1 1;" parent="1" source="255" target="380" edge="1">
                    <mxGeometry relative="1" as="geometry"/>
                </mxCell>
                <mxCell id="255" value="12" style="rounded=0;whiteSpace=wrap;html=1;strokeWidth=3;strokeColor=default;" parent="1" vertex="1">
                    <mxGeometry x="563.3333333333333" y="1004" width="46.666666666666664" height="50" as="geometry"/>
                </mxCell>
                <mxCell id="277" value="" style="shape=singleArrow;direction=south;whiteSpace=wrap;html=1;" parent="1" vertex="1">
                    <mxGeometry x="320" y="330" width="130" height="172" as="geometry"/>
                </mxCell>
                <mxCell id="301" value="4" style="rounded=0;whiteSpace=wrap;html=1;fillColor=#d5e8d4;strokeColor=#82b366;strokeWidth=2;" parent="1" vertex="1">
                    <mxGeometry x="210.00000000000006" y="406" width="40" height="40" as="geometry"/>
                </mxCell>
                <mxCell id="303" value="6" style="rounded=0;whiteSpace=wrap;html=1;fillColor=#d5e8d4;strokeColor=#82b366;strokeWidth=2;" parent="1" vertex="1">
                    <mxGeometry x="291.66999999999996" y="406" width="40" height="40" as="geometry"/>
                </mxCell>
                <mxCell id="304" value="ok" style="text;html=1;align=center;verticalAlign=middle;resizable=0;points=[];autosize=1;strokeColor=none;fillColor=none;fontStyle=1" parent="1" vertex="1">
                    <mxGeometry x="321.66999999999996" y="411" width="40" height="30" as="geometry"/>
                </mxCell>
                <mxCell id="305" value="5" style="rounded=0;whiteSpace=wrap;html=1;fillColor=#d5e8d4;strokeColor=#82b366;strokeWidth=2;" parent="1" vertex="1">
                    <mxGeometry x="250.84" y="406" width="40" height="40" as="geometry"/>
                </mxCell>
                <mxCell id="336" style="edgeStyle=none;html=1;exitX=0.5;exitY=0;exitDx=0;exitDy=0;entryX=0.5;entryY=1;entryDx=0;entryDy=0;dashed=1;dashPattern=1 1;fillColor=#fff2cc;strokeColor=#d6b656;strokeWidth=3;" parent="1" source="243" target="340" edge="1">
                    <mxGeometry relative="1" as="geometry">
                        <mxPoint x="199.99000000000024" y="118.96000000000004" as="targetPoint"/>
                    </mxGeometry>
                </mxCell>
                <mxCell id="453" style="edgeStyle=none;html=1;" edge="1" parent="1" source="337" target="340">
                    <mxGeometry relative="1" as="geometry"/>
                </mxCell>
                <mxCell id="337" value="dIndex" style="text;html=1;align=center;verticalAlign=middle;resizable=0;points=[];autosize=1;strokeColor=none;fillColor=none;fontStyle=1" parent="1" vertex="1">
                    <mxGeometry x="233.34000000000003" y="-70" width="60" height="30" as="geometry"/>
                </mxCell>
                <mxCell id="338" value="8" style="rounded=0;whiteSpace=wrap;html=1;fillColor=#d5e8d4;strokeColor=default;strokeWidth=3;" parent="1" vertex="1">
                    <mxGeometry x="146.67000000000002" y="10" width="46.66666666666666" height="50" as="geometry"/>
                </mxCell>
                <mxCell id="339" value="9" style="rounded=0;whiteSpace=wrap;html=1;strokeWidth=3;" parent="1" vertex="1">
                    <mxGeometry x="193.33666666666664" y="10" width="46.66666666666666" height="50" as="geometry"/>
                </mxCell>
                <mxCell id="363" style="edgeStyle=none;html=1;entryX=0.5;entryY=0;entryDx=0;entryDy=0;strokeWidth=3;" parent="1" source="337" target="340" edge="1">
                    <mxGeometry relative="1" as="geometry">
                        <mxPoint x="160" y="-30" as="targetPoint"/>
                    </mxGeometry>
                </mxCell>
                <mxCell id="340" value="4" style="rounded=0;whiteSpace=wrap;html=1;fillColor=#fff2cc;strokeColor=default;strokeWidth=3;" parent="1" vertex="1">
                    <mxGeometry x="240.00333333333333" y="10" width="46.66666666666666" height="50" as="geometry"/>
                </mxCell>
                <mxCell id="341" value="5" style="rounded=0;whiteSpace=wrap;html=1;strokeWidth=3;strokeColor=default;fillColor=#fff2cc;" parent="1" vertex="1">
                    <mxGeometry x="286.67" y="10" width="46.66666666666666" height="50" as="geometry"/>
                </mxCell>
                <mxCell id="342" value="6" style="rounded=0;whiteSpace=wrap;html=1;strokeWidth=3;strokeColor=default;fillColor=#fff2cc;" parent="1" vertex="1">
                    <mxGeometry x="333.33666666666664" y="10" width="46.66666666666666" height="50" as="geometry"/>
                </mxCell>
                <mxCell id="343" value="7" style="rounded=0;whiteSpace=wrap;html=1;strokeWidth=3;fillColor=#fff2cc;strokeColor=default;" parent="1" vertex="1">
                    <mxGeometry x="380.00333333333333" y="10" width="46.66666666666666" height="50" as="geometry"/>
                </mxCell>
                <mxCell id="349" value="data" style="text;html=1;align=center;verticalAlign=middle;resizable=0;points=[];autosize=1;strokeColor=none;fillColor=none;fontStyle=1" parent="1" vertex="1">
                    <mxGeometry x="90" y="20" width="50" height="30" as="geometry"/>
                </mxCell>
                <mxCell id="376" value="8" style="rounded=0;whiteSpace=wrap;html=1;fillColor=#d5e8d4;strokeColor=default;strokeWidth=3;" parent="1" vertex="1">
                    <mxGeometry x="146.67000000000002" y="750" width="46.66666666666666" height="50" as="geometry"/>
                </mxCell>
                <mxCell id="377" value="9" style="rounded=0;whiteSpace=wrap;html=1;strokeWidth=3;fillColor=#fff2cc;strokeColor=default;" parent="1" vertex="1">
                    <mxGeometry x="193.33666666666664" y="750" width="46.66666666666666" height="50" as="geometry"/>
                </mxCell>
                <mxCell id="378" value="10" style="rounded=0;whiteSpace=wrap;html=1;fillColor=#fff2cc;strokeColor=default;strokeWidth=3;" parent="1" vertex="1">
                    <mxGeometry x="240.00333333333333" y="750" width="46.66666666666666" height="50" as="geometry"/>
                </mxCell>
                <mxCell id="379" value="11" style="rounded=0;whiteSpace=wrap;html=1;strokeWidth=3;strokeColor=default;fillColor=#fff2cc;" parent="1" vertex="1">
                    <mxGeometry x="286.67" y="750" width="46.66666666666666" height="50" as="geometry"/>
                </mxCell>
                <mxCell id="380" value="12" style="rounded=0;whiteSpace=wrap;html=1;strokeWidth=3;strokeColor=default;" parent="1" vertex="1">
                    <mxGeometry x="333.33666666666664" y="750" width="46.66666666666666" height="50" as="geometry"/>
                </mxCell>
                <mxCell id="450" style="edgeStyle=none;html=1;exitX=0.5;exitY=0;exitDx=0;exitDy=0;" parent="1" source="381" target="449" edge="1">
                    <mxGeometry relative="1" as="geometry"/>
                </mxCell>
                <mxCell id="381" value="7" style="rounded=0;whiteSpace=wrap;html=1;strokeWidth=3;fillColor=#fff2cc;strokeColor=default;" parent="1" vertex="1">
                    <mxGeometry x="380.00333333333333" y="750" width="46.66666666666666" height="50" as="geometry"/>
                </mxCell>
                <mxCell id="382" value="data" style="text;html=1;align=center;verticalAlign=middle;resizable=0;points=[];autosize=1;strokeColor=none;fillColor=none;" parent="1" vertex="1">
                    <mxGeometry x="90" y="760" width="50" height="30" as="geometry"/>
                </mxCell>
                <mxCell id="383" value="dIndex" style="text;html=1;align=center;verticalAlign=middle;resizable=0;points=[];autosize=1;strokeColor=none;fillColor=none;fontStyle=1" parent="1" vertex="1">
                    <mxGeometry x="373.34000000000003" y="670" width="60" height="30" as="geometry"/>
                </mxCell>
                <mxCell id="384" style="edgeStyle=none;html=1;entryX=0.5;entryY=0;entryDx=0;entryDy=0;strokeWidth=3;" parent="1" source="383" edge="1">
                    <mxGeometry relative="1" as="geometry">
                        <mxPoint x="403" y="750" as="targetPoint"/>
                    </mxGeometry>
                </mxCell>
                <mxCell id="391" value="滑动窗口移动后, dIndex 位置也会移动" style="text;html=1;align=center;verticalAlign=middle;resizable=0;points=[];autosize=1;strokeColor=none;fillColor=none;fontStyle=1;fontSize=15;" parent="1" vertex="1">
                    <mxGeometry x="241.67000000000002" y="555" width="280" height="30" as="geometry"/>
                </mxCell>
                <mxCell id="392" value="" style="rounded=1;whiteSpace=wrap;html=1;fillColor=default;strokeColor=#878787;dashed=1;dashPattern=8 8;" parent="1" vertex="1">
                    <mxGeometry x="330" y="1755" width="260" height="105" as="geometry"/>
                </mxCell>
                <mxCell id="393" value="" style="rounded=1;whiteSpace=wrap;html=1;fillColor=default;strokeWidth=2;" parent="1" vertex="1">
                    <mxGeometry x="410" y="1755" width="280" height="110" as="geometry"/>
                </mxCell>
                <mxCell id="394" value="0" style="rounded=0;whiteSpace=wrap;html=1;fillColor=#d5e8d4;strokeColor=#82b366;strokeWidth=2;" parent="1" vertex="1">
                    <mxGeometry x="50" y="1800" width="40" height="40" as="geometry"/>
                </mxCell>
                <mxCell id="395" value="1" style="rounded=0;whiteSpace=wrap;html=1;fillColor=#d5e8d4;strokeColor=#82b366;strokeWidth=2;" parent="1" vertex="1">
                    <mxGeometry x="90" y="1800" width="40" height="40" as="geometry"/>
                </mxCell>
                <mxCell id="396" value="2" style="rounded=0;whiteSpace=wrap;html=1;fillColor=#d5e8d4;strokeColor=#82b366;strokeWidth=2;" parent="1" vertex="1">
                    <mxGeometry x="130" y="1800" width="40" height="40" as="geometry"/>
                </mxCell>
                <mxCell id="397" value="3" style="rounded=0;whiteSpace=wrap;html=1;fillColor=#d5e8d4;strokeColor=#82b366;strokeWidth=2;" parent="1" vertex="1">
                    <mxGeometry x="170" y="1800" width="40" height="40" as="geometry"/>
                </mxCell>
                <mxCell id="398" value="4" style="rounded=0;whiteSpace=wrap;html=1;fillColor=#d5e8d4;strokeColor=#82b366;strokeWidth=2;" parent="1" vertex="1">
                    <mxGeometry x="210" y="1800" width="40" height="40" as="geometry"/>
                </mxCell>
                <mxCell id="399" value="5" style="rounded=0;whiteSpace=wrap;html=1;fillColor=#d5e8d4;strokeColor=#82b366;strokeWidth=2;" parent="1" vertex="1">
                    <mxGeometry x="250" y="1800" width="40" height="40" as="geometry"/>
                </mxCell>
                <mxCell id="400" value="6" style="rounded=0;whiteSpace=wrap;html=1;fillColor=#d5e8d4;strokeColor=#82b366;strokeWidth=2;" parent="1" vertex="1">
                    <mxGeometry x="290" y="1800" width="40" height="40" as="geometry"/>
                </mxCell>
                <mxCell id="401" value="" style="curved=1;endArrow=classic;html=1;strokeColor=#5C5C5C;dashed=1;dashPattern=8 8;" parent="1" edge="1">
                    <mxGeometry width="50" height="50" relative="1" as="geometry">
                        <mxPoint x="343.34000000000003" y="1755" as="sourcePoint"/>
                        <mxPoint x="463.34000000000003" y="1755" as="targetPoint"/>
                        <Array as="points">
                            <mxPoint x="363.34000000000003" y="1735"/>
                            <mxPoint x="443.34000000000003" y="1735"/>
                        </Array>
                    </mxGeometry>
                </mxCell>
                <mxCell id="402" value="滑动窗口" style="text;html=1;align=center;verticalAlign=middle;whiteSpace=wrap;rounded=0;fontSize=12;fontStyle=1" parent="1" vertex="1">
                    <mxGeometry x="376.67" y="1755" width="190" height="24.166666666666664" as="geometry"/>
                </mxCell>
                <mxCell id="403" value="7" style="rounded=0;whiteSpace=wrap;html=1;strokeWidth=2;fillColor=#d5e8d4;strokeColor=default;" parent="1" vertex="1">
                    <mxGeometry x="330" y="1800" width="40" height="40" as="geometry"/>
                </mxCell>
                <mxCell id="404" value="8" style="rounded=0;whiteSpace=wrap;html=1;strokeWidth=2;fillColor=#d5e8d4;strokeColor=default;" parent="1" vertex="1">
                    <mxGeometry x="370" y="1800" width="40" height="40" as="geometry"/>
                </mxCell>
                <mxCell id="407" style="edgeStyle=none;html=1;exitX=0.5;exitY=0;exitDx=0;exitDy=0;entryX=0.5;entryY=1;entryDx=0;entryDy=0;strokeWidth=3;dashed=1;dashPattern=1 1;fillColor=#fff2cc;strokeColor=#000000;" parent="1" source="408" target="428" edge="1">
                    <mxGeometry relative="1" as="geometry"/>
                </mxCell>
                <mxCell id="408" value="13" style="rounded=0;whiteSpace=wrap;html=1;strokeWidth=3;" parent="1" vertex="1">
                    <mxGeometry x="596.67" y="1794" width="46.666666666666664" height="50" as="geometry"/>
                </mxCell>
                <mxCell id="409" style="edgeStyle=none;html=1;exitX=0.5;exitY=0;exitDx=0;exitDy=0;entryX=0.5;entryY=1;entryDx=0;entryDy=0;strokeWidth=3;dashed=1;dashPattern=1 1;fillColor=#d5e8d4;strokeColor=#000000;" parent="1" source="410" target="423" edge="1">
                    <mxGeometry relative="1" as="geometry"/>
                </mxCell>
                <mxCell id="410" value="14" style="rounded=0;whiteSpace=wrap;html=1;strokeWidth=3;" parent="1" vertex="1">
                    <mxGeometry x="643.3366666666667" y="1794" width="46.666666666666664" height="50" as="geometry"/>
                </mxCell>
                <mxCell id="411" style="edgeStyle=none;html=1;exitX=0.5;exitY=0;exitDx=0;exitDy=0;entryX=0.5;entryY=1;entryDx=0;entryDy=0;strokeWidth=3;dashed=1;dashPattern=1 1;fillColor=#fff2cc;strokeColor=#d6b656;" parent="1" source="412" target="424" edge="1">
                    <mxGeometry relative="1" as="geometry"/>
                </mxCell>
                <mxCell id="412" value="9" style="rounded=0;whiteSpace=wrap;html=1;fillColor=#fff2cc;strokeColor=default;strokeWidth=3;" parent="1" vertex="1">
                    <mxGeometry x="410.00333333333333" y="1794" width="46.666666666666664" height="50" as="geometry"/>
                </mxCell>
                <mxCell id="413" style="edgeStyle=none;html=1;exitX=0.5;exitY=0;exitDx=0;exitDy=0;entryX=0.5;entryY=1;entryDx=0;entryDy=0;strokeWidth=3;dashed=1;dashPattern=1 1;fillColor=#fff2cc;strokeColor=#d6b656;" parent="1" source="414" target="425" edge="1">
                    <mxGeometry relative="1" as="geometry"/>
                </mxCell>
                <mxCell id="414" value="10" style="rounded=0;whiteSpace=wrap;html=1;strokeWidth=3;strokeColor=default;fillColor=#fff2cc;" parent="1" vertex="1">
                    <mxGeometry x="456.67" y="1794" width="46.666666666666664" height="50" as="geometry"/>
                </mxCell>
                <mxCell id="415" style="edgeStyle=none;html=1;exitX=0.5;exitY=0;exitDx=0;exitDy=0;entryX=0.5;entryY=1;entryDx=0;entryDy=0;strokeWidth=3;dashed=1;dashPattern=1 1;fillColor=#fff2cc;strokeColor=#d6b656;" parent="1" source="416" target="426" edge="1">
                    <mxGeometry relative="1" as="geometry"/>
                </mxCell>
                <mxCell id="416" value="11" style="rounded=0;whiteSpace=wrap;html=1;strokeWidth=3;strokeColor=default;fillColor=#fff2cc;" parent="1" vertex="1">
                    <mxGeometry x="503.33666666666664" y="1794" width="46.666666666666664" height="50" as="geometry"/>
                </mxCell>
                <mxCell id="417" style="edgeStyle=none;html=1;exitX=0.5;exitY=0;exitDx=0;exitDy=0;entryX=0.5;entryY=1;entryDx=0;entryDy=0;strokeWidth=3;dashed=1;dashPattern=1 1;fillColor=#fff2cc;strokeColor=#000000;" parent="1" source="418" target="427" edge="1">
                    <mxGeometry relative="1" as="geometry"/>
                </mxCell>
                <mxCell id="418" value="12" style="rounded=0;whiteSpace=wrap;html=1;strokeWidth=3;" parent="1" vertex="1">
                    <mxGeometry x="550.0033333333332" y="1794" width="46.666666666666664" height="50" as="geometry"/>
                </mxCell>
                <mxCell id="419" value="7" style="rounded=0;whiteSpace=wrap;html=1;fillColor=#d5e8d4;strokeColor=#82b366;strokeWidth=2;" parent="1" vertex="1">
                    <mxGeometry x="280.00000000000006" y="1196" width="40" height="40" as="geometry"/>
                </mxCell>
                <mxCell id="420" value="ok" style="text;html=1;align=center;verticalAlign=middle;resizable=0;points=[];autosize=1;strokeColor=none;fillColor=none;fontStyle=1" parent="1" vertex="1">
                    <mxGeometry x="313.33" y="1201" width="40" height="30" as="geometry"/>
                </mxCell>
                <mxCell id="422" value="" style="shape=singleArrow;direction=south;whiteSpace=wrap;html=1;" parent="1" vertex="1">
                    <mxGeometry x="320" y="1120" width="130" height="172" as="geometry"/>
                </mxCell>
                <mxCell id="423" value="14" style="rounded=0;whiteSpace=wrap;html=1;strokeWidth=3;" parent="1" vertex="1">
                    <mxGeometry x="146.67000000000002" y="1540" width="46.66666666666666" height="50" as="geometry"/>
                </mxCell>
                <mxCell id="424" value="9" style="rounded=0;whiteSpace=wrap;html=1;strokeWidth=3;fillColor=#fff2cc;strokeColor=default;" parent="1" vertex="1">
                    <mxGeometry x="193.33666666666664" y="1540" width="46.66666666666666" height="50" as="geometry"/>
                </mxCell>
                <mxCell id="425" value="10" style="rounded=0;whiteSpace=wrap;html=1;fillColor=#fff2cc;strokeColor=default;strokeWidth=3;" parent="1" vertex="1">
                    <mxGeometry x="240.00333333333333" y="1540" width="46.66666666666666" height="50" as="geometry"/>
                </mxCell>
                <mxCell id="426" value="11" style="rounded=0;whiteSpace=wrap;html=1;strokeWidth=3;strokeColor=default;fillColor=#fff2cc;" parent="1" vertex="1">
                    <mxGeometry x="286.67" y="1540" width="46.66666666666666" height="50" as="geometry"/>
                </mxCell>
                <mxCell id="427" value="12" style="rounded=0;whiteSpace=wrap;html=1;strokeWidth=3;strokeColor=default;" parent="1" vertex="1">
                    <mxGeometry x="333.33666666666664" y="1540" width="46.66666666666666" height="50" as="geometry"/>
                </mxCell>
                <mxCell id="428" value="13" style="rounded=0;whiteSpace=wrap;html=1;strokeWidth=3;" parent="1" vertex="1">
                    <mxGeometry x="380.00333333333333" y="1540" width="46.66666666666666" height="50" as="geometry"/>
                </mxCell>
                <mxCell id="429" value="data" style="text;html=1;align=center;verticalAlign=middle;resizable=0;points=[];autosize=1;strokeColor=none;fillColor=none;" parent="1" vertex="1">
                    <mxGeometry x="90" y="1550" width="50" height="30" as="geometry"/>
                </mxCell>
                <mxCell id="430" value="dIndex" style="text;html=1;align=center;verticalAlign=middle;resizable=0;points=[];autosize=1;strokeColor=none;fillColor=none;fontStyle=1" parent="1" vertex="1">
                    <mxGeometry x="190.00000000000003" y="1460" width="60" height="30" as="geometry"/>
                </mxCell>
                <mxCell id="431" style="edgeStyle=none;html=1;entryX=0.5;entryY=0;entryDx=0;entryDy=0;strokeWidth=3;" parent="1" source="430" edge="1">
                    <mxGeometry relative="1" as="geometry">
                        <mxPoint x="219.66" y="1540" as="targetPoint"/>
                    </mxGeometry>
                </mxCell>
                <mxCell id="432" value="当 dIndex 移动到 data 末尾后会从开头继续移动" style="text;html=1;align=center;verticalAlign=middle;resizable=0;points=[];autosize=1;strokeColor=none;fillColor=none;fontStyle=1;fontSize=15;" parent="1" vertex="1">
                    <mxGeometry x="190" y="1360" width="340" height="30" as="geometry"/>
                </mxCell>
                <mxCell id="434" value="15" style="rounded=0;whiteSpace=wrap;html=1;strokeWidth=2;" parent="1" vertex="1">
                    <mxGeometry x="690" y="1799" width="40" height="40" as="geometry"/>
                </mxCell>
                <mxCell id="435" value="..." style="rounded=0;whiteSpace=wrap;html=1;strokeWidth=2;" parent="1" vertex="1">
                    <mxGeometry x="730" y="1799" width="40" height="40" as="geometry"/>
                </mxCell>
                <mxCell id="436" value="99" style="rounded=0;whiteSpace=wrap;html=1;strokeWidth=2;" parent="1" vertex="1">
                    <mxGeometry x="770" y="1799" width="40" height="40" as="geometry"/>
                </mxCell>
                <mxCell id="438" value="dIndex" style="text;html=1;align=center;verticalAlign=middle;resizable=0;points=[];autosize=1;strokeColor=none;fillColor=none;fontStyle=1;fontColor=#9E9E9E;" parent="1" vertex="1">
                    <mxGeometry x="370" y="1460" width="60" height="30" as="geometry"/>
                </mxCell>
                <mxCell id="439" style="edgeStyle=none;html=1;entryX=0.5;entryY=0;entryDx=0;entryDy=0;strokeWidth=3;strokeColor=#9E9E9E;dashed=1;dashPattern=1 1;" parent="1" source="438" edge="1">
                    <mxGeometry relative="1" as="geometry">
                        <mxPoint x="399.65999999999997" y="1540" as="targetPoint"/>
                    </mxGeometry>
                </mxCell>
                <mxCell id="441" value="" style="curved=1;endArrow=none;html=1;strokeColor=#5C5C5C;dashed=1;dashPattern=8 8;startArrow=classic;startFill=1;endFill=0;" parent="1" edge="1">
                    <mxGeometry width="50" height="50" relative="1" as="geometry">
                        <mxPoint x="233.33000000000004" y="1450" as="sourcePoint"/>
                        <mxPoint x="400" y="1450" as="targetPoint"/>
                        <Array as="points">
                            <mxPoint x="250" y="1420"/>
                            <mxPoint x="380" y="1420"/>
                        </Array>
                    </mxGeometry>
                </mxCell>
                <mxCell id="442" value="" style="curved=1;endArrow=classic;html=1;strokeColor=#5C5C5C;dashed=1;dashPattern=8 8;exitX=0.594;exitY=-0.1;exitDx=0;exitDy=0;exitPerimeter=0;" parent="1" source="443" edge="1">
                    <mxGeometry width="50" height="50" relative="1" as="geometry">
                        <mxPoint x="310" y="670" as="sourcePoint"/>
                        <mxPoint x="400" y="670" as="targetPoint"/>
                        <Array as="points">
                            <mxPoint x="290" y="630"/>
                            <mxPoint x="390" y="630"/>
                        </Array>
                    </mxGeometry>
                </mxCell>
                <mxCell id="443" value="dIndex" style="text;html=1;align=center;verticalAlign=middle;resizable=0;points=[];autosize=1;strokeColor=none;fillColor=none;fontStyle=1;fontColor=#9E9E9E;" parent="1" vertex="1">
                    <mxGeometry x="233.34" y="670" width="60" height="30" as="geometry"/>
                </mxCell>
                <mxCell id="444" style="edgeStyle=none;html=1;entryX=0.5;entryY=0;entryDx=0;entryDy=0;strokeWidth=3;strokeColor=#9E9E9E;dashed=1;dashPattern=1 1;" parent="1" edge="1">
                    <mxGeometry relative="1" as="geometry">
                        <mxPoint x="262.84" y="750" as="targetPoint"/>
                        <mxPoint x="263.1015384615384" y="700" as="sourcePoint"/>
                    </mxGeometry>
                </mxCell>
                <mxCell id="445" value="startDataSn=4" style="text;html=1;align=center;verticalAlign=middle;resizable=0;points=[];autosize=1;strokeColor=none;fillColor=none;" parent="1" vertex="1">
                    <mxGeometry x="314" y="-62" width="100" height="30" as="geometry"/>
                </mxCell>
                <mxCell id="446" style="edgeStyle=none;html=1;exitX=0.5;exitY=0;exitDx=0;exitDy=0;entryX=0.49;entryY=0.9;entryDx=0;entryDy=0;entryPerimeter=0;" parent="1" source="340" target="445" edge="1">
                    <mxGeometry relative="1" as="geometry"/>
                </mxCell>
                <mxCell id="449" value="startDataSn=7" style="text;html=1;align=center;verticalAlign=middle;resizable=0;points=[];autosize=1;strokeColor=none;fillColor=none;" parent="1" vertex="1">
                    <mxGeometry x="443.33" y="679" width="100" height="30" as="geometry"/>
                </mxCell>
                <mxCell id="451" value="startDataSn=9" style="text;html=1;align=center;verticalAlign=middle;resizable=0;points=[];autosize=1;strokeColor=none;fillColor=none;" parent="1" vertex="1">
                    <mxGeometry x="80" y="1470" width="100" height="30" as="geometry"/>
                </mxCell>
                <mxCell id="452" style="edgeStyle=none;html=1;exitX=0.5;exitY=0;exitDx=0;exitDy=0;entryX=0.818;entryY=1.011;entryDx=0;entryDy=0;entryPerimeter=0;" parent="1" source="424" target="451" edge="1">
                    <mxGeometry relative="1" as="geometry"/>
                </mxCell>
                <mxCell id="454" value="dIndex 表示滑动窗口第一条数据对应 data 中的位置" style="text;html=1;align=center;verticalAlign=middle;resizable=0;points=[];autosize=1;strokeColor=none;fillColor=none;fontStyle=1;fontSize=15;" vertex="1" parent="1">
                    <mxGeometry x="179" y="-120" width="370" height="30" as="geometry"/>
                </mxCell>
                <mxCell id="455" value="data 表示每个窗格对应数据处理状态" style="text;html=1;align=center;verticalAlign=middle;resizable=0;points=[];autosize=1;strokeColor=none;fillColor=none;fontStyle=1" vertex="1" parent="1">
                    <mxGeometry x="433.34000000000003" y="20" width="220" height="30" as="geometry"/>
                </mxCell>
            </root>
        </mxGraphModel>
    </diagram>
</mxfile>